<?xml version="1.0" encoding="UTF-8"?>
<svg version="1.1" xmlns="http://www.w3.org/2000/svg" width="1024" height="1024">
<path d="M0 0 C337.92 0 675.84 0 1024 0 C1024 337.92 1024 675.84 1024 1024 C686.08 1024 348.16 1024 0 1024 C0 686.08 0 348.16 0 0 Z " fill="#FDFDFD" transform="translate(0,0)"/>
<path d="M0 0 C28.38 0 56.76 0 86 0 C87.36389639 4.09168916 88.62610158 8.11297213 89.76953125 12.26171875 C90.09848389 13.4535376 90.42743652 14.64535645 90.76635742 15.87329102 C91.284198 17.76132446 91.284198 17.76132446 91.8125 19.6875 C91.99052155 20.33516327 92.16854309 20.98282654 92.35195923 21.65011597 C95.98032692 34.85164033 99.54430921 48.06540583 102.81787109 61.35986328 C103.02234863 62.1898584 103.22682617 63.01985352 103.4375 63.875 C103.64068848 64.69983887 103.84387695 65.52467773 104.05322266 66.37451172 C105.80955675 73.41764416 107.80804544 80.37990698 109.83740234 87.34838867 C111.59825206 93.44884057 113.126799 99.5704156 114.53369141 105.76074219 C116.4046542 113.91898778 118.71574492 121.94981511 121 130 C124.18765826 141.29183331 127.21206987 152.60228564 130 164 C130.33 165.32 130.66 166.64 131 168 C131.33 112.89 131.66 57.78 132 1 C158.4 1 184.8 1 212 1 C212 127.39 212 253.78 212 384 C188.57 384 165.14 384 141 384 C135.38537081 366.20818803 129.79917528 348.41302031 124.375 330.5625 C120.79951409 318.80035388 117.13292966 307.07371335 113.34545898 295.37768555 C110.49196919 286.55902207 107.69912194 277.72276428 104.9375 268.875 C104.62199188 267.8643045 104.62199188 267.8643045 104.30010986 266.83319092 C101.11716034 256.63064344 97.97109786 246.41696543 94.83886719 236.19873047 C92.39463758 228.24062844 89.89044003 220.30275097 87.3449707 212.37646484 C85.7010866 207.2491478 84.13263786 202.10772721 82.6418457 196.93359375 C82.1658468 195.01640289 82.1658468 195.01640289 81 194 C80.67 257.03 80.34 320.06 80 385 C53.6 385 27.2 385 0 385 C0 257.95 0 130.9 0 0 Z " fill="#000000" transform="translate(636,315)"/>
<path d="M0 0 C1.32064453 0.69222656 1.32064453 0.69222656 2.66796875 1.3984375 C20.57965916 11.45120018 31.12626849 28.23204512 37.0625 47.4375 C38.99537312 54.8716274 40.1282962 62.15767932 40.11352539 69.85327148 C40.11364593 70.50831948 40.11376646 71.16336748 40.11389065 71.83826542 C40.11315166 73.93257759 40.1055703 76.02679776 40.09765625 78.12109375 C40.09664917 79.4114856 40.09564209 80.70187744 40.09460449 82.03137207 C40.08938809 86.8334238 40.07542685 91.63546283 40.0625 96.4375 C40.041875 107.183125 40.02125 117.92875 40 129 C13.93 129 -12.14 129 -39 129 C-39.3125 105.3125 -39.3125 105.3125 -39.38793945 97.91918945 C-38.96186363 79.78707301 -38.96186363 79.78707301 -45.3125 63.3125 C-50.21726477 59.09212101 -55.18048342 58.70676682 -61.5 58.6875 C-62.7684375 58.67074219 -64.036875 58.65398437 -65.34375 58.63671875 C-69.97039007 59.09641696 -73.33057949 60.2819556 -76.609375 63.65625 C-83.55090206 74.87680058 -82.28237354 88.27963629 -82.24291992 100.984375 C-82.24399432 102.99768129 -82.24593534 105.01098728 -82.24867249 107.02429199 C-82.25349877 112.46638525 -82.24589267 117.90839586 -82.23571944 123.35047913 C-82.22690063 129.0601491 -82.22869714 134.76981679 -82.2290802 140.47949219 C-82.22814517 150.06576917 -82.21948324 159.65201441 -82.20581055 169.23828125 C-82.1900868 180.30309727 -82.18481256 191.36787854 -82.1855461 202.43270493 C-82.18622294 214.23896095 -82.17927415 226.04520369 -82.1700995 237.85145569 C-82.16797382 241.24191336 -82.16725909 244.63236887 -82.16686058 248.02282715 C-82.16585182 253.36134601 -82.15971181 258.69983602 -82.14969444 264.03834534 C-82.14678795 265.99137698 -82.1455403 267.94441196 -82.14612198 269.89744568 C-83.06132549 289.21654663 -83.06132549 289.21654663 -77 307 C-71.28979649 311.75850292 -66.18471308 312.37596298 -58.95703125 312.26953125 C-53.58126682 311.77953423 -48.22185775 310.55905025 -44.55859375 306.33984375 C-39.56448934 297.36519856 -39.68799023 286.08224064 -39.5859375 276.11328125 C-39.55947144 274.53758362 -39.55947144 274.53758362 -39.5324707 272.93005371 C-39.47006051 269.05768298 -39.42342291 265.1850709 -39.375 261.3125 C-39.25125 252.629375 -39.1275 243.94625 -39 235 C-11.94 235 15.12 235 43 235 C43.0309375 250.71625 43.0309375 250.71625 43.0625 266.75 C43.071604 270.03420898 43.08070801 273.31841797 43.09008789 276.70214844 C43.09301158 279.33789021 43.09555906 281.97363244 43.09765625 284.609375 C43.10157631 285.61100677 43.10157631 285.61100677 43.10557556 286.63287354 C43.19450457 310.59467795 40.13018952 335.13444617 24 354 C23.22140625 354.91394531 22.4428125 355.82789063 21.640625 356.76953125 C10.21488053 369.14742109 -4.88524306 376.64298336 -21 381 C-21.76747559 381.20882813 -22.53495117 381.41765625 -23.32568359 381.6328125 C-35.73085405 384.81659635 -48.0756073 385.38628789 -60.8125 385.4375 C-61.90313751 385.44689606 -61.90313751 385.44689606 -63.01580811 385.45648193 C-90.98967879 385.60893886 -117.85177711 378.31325136 -140 361 C-140.70769531 360.47664063 -141.41539062 359.95328125 -142.14453125 359.4140625 C-155.49332772 348.9881402 -164.01155823 329.84575658 -166.625 313.4375 C-166.80675781 312.36338867 -166.80675781 312.36338867 -166.9921875 311.26757812 C-167.34169541 309.18002815 -167.67953113 307.092217 -168 305 C-168.16914288 303.99399655 -168.33828575 302.98799311 -168.51255417 301.95150471 C-169.06782709 297.45015621 -169.14499345 293.07697259 -169.14044189 288.5476532 C-169.14341302 287.61515537 -169.14638414 286.68265753 -169.1494453 285.72190219 C-169.15809457 282.60715412 -169.15963737 279.49244466 -169.16113281 276.37768555 C-169.16576383 274.13987649 -169.17078887 271.90206822 -169.17617798 269.66426086 C-169.18928076 263.58928066 -169.19574336 257.5143115 -169.20018864 251.43931937 C-169.20312413 247.63784179 -169.20722995 243.8363672 -169.21169281 240.03489113 C-169.22379976 229.48755234 -169.23418122 218.94021616 -169.2375679 208.3928709 C-169.23778747 207.71859428 -169.23800703 207.04431766 -169.23823325 206.34960841 C-169.23845153 205.67380534 -169.23866981 204.99800227 -169.2388947 204.30172032 C-169.23933815 202.93251081 -169.23978471 201.5633013 -169.24023438 200.1940918 C-169.2404558 199.5149305 -169.24067723 198.8357692 -169.24090537 198.13602725 C-169.24484504 187.15550667 -169.26227455 176.17505279 -169.2855939 165.19455793 C-169.30940138 153.89186432 -169.32151697 142.58920284 -169.32293582 131.28648025 C-169.32397977 124.95236315 -169.32979926 118.6183401 -169.34775543 112.28424644 C-169.36434451 106.31618695 -169.36633943 100.34829107 -169.35761642 94.3802166 C-169.35685169 92.20275176 -169.36111333 90.02527773 -169.37107468 87.84783554 C-169.485949 61.14797795 -166.04935318 34.37222493 -147 14 C-129.54154054 -2.36730574 -110.04683868 -9.12689087 -87 -13 C-85.93265625 -13.19464844 -84.8653125 -13.38929688 -83.765625 -13.58984375 C-55.66002679 -16.65113816 -25.24068322 -13.32052295 0 0 Z " fill="#000000" transform="translate(343,321)"/>
<path d="M0 0 C0.95132813 0.34546875 1.90265625 0.6909375 2.8828125 1.046875 C25.7049666 9.74670398 43.05170095 26.85407269 53 49 C62.63139277 74.48483574 63.20753093 106.58756446 57 133 C56.5696351 134.97641512 56.14000268 136.95298982 55.7109375 138.9296875 C51.66748835 157.0696668 46.15525947 173.89238875 38.1875 190.6875 C37.49599854 192.14639648 37.49599854 192.14639648 36.79052734 193.63476562 C29.45216418 208.6660505 20.44562232 222.67079778 11.05883789 236.48632812 C9.42780054 238.88928995 7.80823422 241.29970688 6.18945312 243.7109375 C0.48593406 252.16365743 -5.37569751 260.23844573 -12 268 C-13.02056705 269.24858089 -14.03674665 270.50077151 -15.046875 271.7578125 C-15.49216553 272.31130371 -15.93745605 272.86479492 -16.39624023 273.43505859 C-22.8223565 281.45698407 -29.08749943 289.59344187 -35.30615234 297.77685547 C-37.08976599 300.11781624 -38.88173287 302.45218425 -40.67578125 304.78515625 C-41.27398682 305.56391113 -41.87219238 306.34266602 -42.48852539 307.14501953 C-43.64151024 308.64557777 -44.79560174 310.1452865 -45.95092773 311.64404297 C-46.46727783 312.31709473 -46.98362793 312.99014648 -47.515625 313.68359375 C-47.97227539 314.27712646 -48.42892578 314.87065918 -48.89941406 315.48217773 C-50.07902808 317.02222184 -50.07902808 317.02222184 -51 319 C-14.37 319 22.26 319 60 319 C60 340.78 60 362.56 60 385 C-8.31 385 -76.62 385 -147 385 C-147 320.58679279 -147 320.58679279 -129.875 295.5 C-129.2473877 294.57985107 -128.61977539 293.65970215 -127.97314453 292.71166992 C-122.64381617 284.91286188 -117.2541875 277.15678977 -111.85009766 269.40966797 C-107.61663676 263.33719084 -103.41868703 257.24209509 -99.25 251.125 C-94.68921378 244.43472903 -90.05701828 237.79992188 -85.37353516 231.19506836 C-81.62501612 225.90307779 -77.93521694 220.57355326 -74.28027344 215.21655273 C-71.77783397 211.55671279 -69.24114303 207.92639703 -66.65625 204.32421875 C-48.89828779 179.501181 -32.91996614 152.7162366 -25 123 C-24.81663086 122.31486328 -24.63326172 121.62972656 -24.44433594 120.92382812 C-22.02230048 111.60452416 -20.62798125 102.58047608 -20.5625 92.9375 C-20.55250977 92.09380859 -20.54251953 91.25011719 -20.53222656 90.38085938 C-20.64870908 81.93421258 -22.49602698 73.60476762 -28 67 C-35.86497618 61.06114044 -44.48486057 60.95422568 -54 62 C-59.00287419 63.51645195 -61.81238051 66.15603342 -64.3125 70.6875 C-68.11974892 80.06611453 -69.45804659 88.30577623 -69.51171875 98.4453125 C-69.52835571 99.55575928 -69.54499268 100.66620605 -69.56213379 101.81030273 C-69.61949036 105.91501381 -69.65207487 110.02004106 -69.6875 114.125 C-69.790625 123.32375 -69.89375 132.5225 -70 142 C-96.07 142 -122.14 142 -149 142 C-149.55846649 46.50223019 -149.55846649 46.50223019 -123.53515625 18.48046875 C-92.83452542 -11.55789885 -38.54701076 -15.6999983 0 0 Z " fill="#010101" transform="translate(554,315)"/>
<path d="M0 0 C28.38 0 56.76 0 86 0 C86 0.33 86 0.66 86 1 C57.95 1 29.9 1 1 1 C1 127.39 1 253.78 1 384 C26.74 384 52.48 384 79 384 C79 318.66 79 253.32 79 186 C81.36556709 188.36556709 81.58244041 189.74303521 82 193 C81.67 193.33 81.34 193.66 81 194 C80.88990963 196.46591718 80.84504117 198.90443253 80.84178162 201.37135315 C80.83684364 202.15216608 80.83190566 202.932979 80.82681805 203.73745292 C80.81136631 206.37387586 80.80306179 209.01027431 80.79467773 211.64672852 C80.78510523 213.52862771 80.77509553 215.41052472 80.76467896 217.29241943 C80.73755576 222.41821592 80.71658648 227.54402169 80.69667697 232.66985059 C80.67486298 238.02039118 80.64745193 243.37090293 80.62062073 248.72142029 C80.5706316 258.86096268 80.52571593 269.00052102 80.48259836 279.1400947 C80.43327902 290.68042521 80.37834129 302.2207268 80.32291877 313.76102936 C80.20900328 337.5073273 80.10292699 361.25365172 80 385 C53.6 385 27.2 385 0 385 C0 257.95 0 130.9 0 0 Z " fill="#636564" transform="translate(636,315)"/>
<path d="M0 0 C2.36556709 2.36556709 2.58244041 3.74303521 3 7 C2.67 7.33 2.34 7.66 2 8 C1.88990963 10.46591718 1.84504117 12.90443253 1.84178162 15.37135315 C1.83684364 16.15216608 1.83190566 16.932979 1.82681805 17.73745292 C1.81136631 20.37387586 1.80306179 23.01027431 1.79467773 25.64672852 C1.78510523 27.52862771 1.77509553 29.41052472 1.76467896 31.29241943 C1.73755576 36.41821592 1.71658648 41.54402169 1.69667697 46.66985059 C1.67486298 52.02039118 1.64745193 57.37090293 1.62062073 62.72142029 C1.5706316 72.86096268 1.52571593 83.00052102 1.48259836 93.1400947 C1.43327902 104.68042521 1.37834129 116.2207268 1.32291877 127.76102936 C1.20900329 151.50732594 1.10218519 175.25365025 1 199 C0.67 199 0.34 199 0 199 C0 133.33 0 67.66 0 0 Z " fill="#A4A3A6" transform="translate(715,501)"/>
<path d="M0 0 C2.36556709 2.36556709 2.58244041 3.74303521 3 7 C2.67 7.33 2.34 7.66 2 8 C1.84003834 10.59153107 1.74061303 13.1595202 1.68359375 15.75390625 C1.66281265 16.52935287 1.64203156 17.3047995 1.62062073 18.10374451 C1.55504198 20.58990308 1.49620201 23.07617045 1.4375 25.5625 C1.39432267 27.24415204 1.35070864 28.92579294 1.30664062 30.60742188 C1.19935221 34.73816871 1.09810868 38.86902536 1 43 C0.67 43 0.34 43 0 43 C0 28.81 0 14.62 0 0 Z " fill="#B9B8B9" transform="translate(715,501)"/>
<path d="M0 0 C2.41201979 2.41201979 2.75925978 3.62963689 3 7 C2.01 8.32 1.02 9.64 0 11 C0 7.37 0 3.74 0 0 Z " fill="#B2B3B4" transform="translate(715,501)"/>
</svg>
